<svg xmlns="http://www.w3.org/2000/svg" viewBox="0 0 730.24 101.56"><g id="Layer_2" data-name="Layer 2"><g id="Layer_1-2" data-name="Layer 1"><path d="M79.89,0a55.63,55.63,0,0,0,0,101.56A92.58,92.58,0,0,1,79.89,0" style="fill:#fdb924"/><path d="M32.92,0a55.62,55.62,0,0,0,0,101.56A92.52,92.52,0,0,1,32.92,0" style="fill:#fdb924"/><path d="M650.35,0a55.63,55.63,0,0,1,0,101.56A92.58,92.58,0,0,0,650.35,0" style="fill:#fdb924"/><path d="M697.32,0a55.62,55.62,0,0,1,0,101.56A92.52,92.52,0,0,0,697.32,0" style="fill:#fdb924"/><path d="M158.74,75.66a45.51,45.51,0,0,1-16,2.74c-16.86,0-26.87-10.61-26.87-27.5,0-18.87,11.75-28,26.75-28a40.14,40.14,0,0,1,16,3.12l4-15c-3.37-1.75-10.87-3.75-20.75-3.75-25.5,0-46,15.88-46,44.63,0,24.13,15,42.37,44.11,42.37,10.12,0,18.13-2,21.51-3.63Zm75.39-33.87h-31V24.28H236V8.66H184.14V92.9h53.63V77.28H203.14v-20h31Zm44,51.11V67.53c0-13.74-.25-25.62-.87-36.87h.49a299.56,299.56,0,0,0,14.63,29.75l18,32.49h20V8.66h-17.5V33.15a346.32,346.32,0,0,0,1.51,35.26h-.26a265.21,265.21,0,0,0-13.74-28.88L282.91,8.66H260.68V92.9Zm95,0h19V24.66h23v-16H350.44v16H373.2Zm62,0H454.1V59.78h5.63c7.86.13,11.5,2.88,13.87,13.5,2.37,10.37,4.5,17.25,5.75,19.62h19.49c-1.61-3.24-4.11-14.25-6.74-23.87-2.13-7.75-5.37-13.25-11.25-15.62V53c7.25-2.62,14.87-10,14.87-20.63,0-7.74-2.75-13.62-7.87-17.61C481.85,9.91,473.1,8,460.6,8a150.12,150.12,0,0,0-25.38,1.88Zm18.88-70a38.37,38.37,0,0,1,8.63-.62c8.74,0,14,4,14,11.61,0,7.38-5.62,12.14-15.12,12.14h-7.5Zm65.28,70h19V8.66h-19ZM623.79,75.66c-3.88,1.62-10.14,2.74-16,2.74-16.88,0-26.86-10.61-26.86-27.5,0-18.87,11.74-28,26.74-28a40.14,40.14,0,0,1,16,3.12l4-15c-3.38-1.75-10.87-3.75-20.75-3.75-25.5,0-46,15.88-46,44.63,0,24.13,15,42.37,44.13,42.37,10.12,0,18.12-2,21.5-3.63Z" style="fill:#2c1b5d"/></g></g></svg>